<svg width="570" height="478" viewBox="0 0 570 478" fill="none" xmlns="http://www.w3.org/2000/svg">
<g clip-path="url(#clip0_137_950)">
<g clip-path="url(#clip1_137_950)">
<path d="M9.22852 477.272C9.22852 477.272 35.6048 436.572 47.9487 419.177L80.3368 375.886L95.0243 356.802C95.0243 356.802 101.094 344.822 105.883 352.93C105.883 352.93 118.46 375.624 121.735 399.54L125.68 419.57C125.68 419.57 129.217 430.182 133.832 419.57L143.133 391.01C143.133 391.01 146.132 371.504 148.257 385.784L150.746 395.625C150.746 395.625 151.882 405.072 155.142 396.949L166.22 358.258C166.22 358.258 169.51 347.443 171.984 354.43L175.23 359.335C175.23 359.335 179.859 365.522 181.213 360.558L190.689 336.86C190.689 336.86 211.534 278.998 219.016 263.146C219.016 263.146 228.012 250.06 229.424 250.002C229.424 250.002 233.718 244.558 237.925 253.131L245.684 285.025L260.517 339.029C260.517 339.029 261.492 348.345 265.306 341.911C265.306 341.911 280.663 312.129 291.9 276.946C291.9 276.946 317.884 210.161 318.204 209.375L325.118 190.32C325.118 190.32 328.787 180.32 332.891 187.263C332.891 187.263 336.239 193.916 337.04 204.062C337.04 204.062 338.321 239.361 341.392 258.095C341.392 258.095 348.656 304.865 354.362 316.073C354.362 316.073 356.997 324.72 359.69 320.033C359.69 320.033 369.064 302.551 374.639 275.155L383.883 237.308C383.883 237.308 387.697 224.484 391.743 231.209C391.743 231.209 398.832 245.125 401.19 256.669C401.19 256.669 406.358 276.494 414.204 282.564C414.204 282.564 417.741 288.998 419.823 281.575C419.823 281.575 427.887 250.482 425.936 238.939C425.936 238.939 427.188 217.73 431.482 196.128C431.482 196.128 433.724 183.741 433.171 176.623C433.171 176.623 432.836 169.097 436.81 176.623C436.81 176.623 445.588 207.613 447.32 212.082C447.32 212.082 453.797 222.082 458.587 210.277C458.587 210.277 468.092 189.374 470.304 160.217C470.304 160.217 472.997 129.532 477.044 109.969L481.469 88.0756C481.469 88.0756 484.977 73.1698 486.695 86.2998C486.695 86.2998 491.47 122.414 494.41 143.419C494.41 143.419 495.08 154.351 503.013 146.869C503.013 146.869 557.716 41.8443 555.882 40.8545C554.048 39.8646 542.999 42.2519 544.965 45.9492C546.93 49.6466 561.108 35.4832 560.831 38.8166C560.467 43.1544 559.739 51.7427 559.739 51.7427" stroke="black" style="stroke:black;stroke-opacity:1;" stroke-width="1.45565" stroke-miterlimit="10" stroke-linecap="round"/>
</g>
</g>
<defs>
<clipPath id="clip0_137_950">
<rect width="570" height="478" fill="white" style="fill:white;fill-opacity:1;"/>
</clipPath>
<clipPath id="clip1_137_950">
<rect width="553" height="440.436" fill="white" style="fill:white;fill-opacity:1;" transform="translate(8.5 37.5642)"/>
</clipPath>
</defs>
</svg>
